HIERARCHY
ROOT Hips
{
	OFFSET 55.310501 45.591206 43.872097
	CHANNELS 6 Xposition Yposition Zposition Zrotation Xrotation Yrotation
	JOINT Chest
	{
		OFFSET -0.153500 1.163101 7.852402
		CHANNELS 6 Xposition Yposition Zposition Zrotation Xrotation Yrotation
		JOINT Chest2
		{
			OFFSET 0.000000 0.000000 3.343300
			CHANNELS 6 Xposition Yposition Zposition Zrotation Xrotation Yrotation
			JOINT Neck
			{
				OFFSET 0.000000 0.000000 7.785500
				CHANNELS 6 Xposition Yposition Zposition Zrotation Xrotation Yrotation
				JOINT Head
				{
					OFFSET 0.000000 0.000000 2.173901
					CHANNELS 6 Xposition Yposition Zposition Zrotation Xrotation Yrotation
					End Site
					{
						OFFSET 0.000000 0.000000 10.528198
					}
				}
			}
			JOINT LeftCollar
			{
				OFFSET 2.676300 -1.652401 4.938301
				CHANNELS 6 Xposition Yposition Zposition Zrotation Xrotation Yrotation
				JOINT LeftShoulder
				{
					OFFSET 4.299000 0.000000 0.000000
					CHANNELS 6 Xposition Yposition Zposition Zrotation Xrotation Yrotation
					JOINT LeftElbow
					{
						OFFSET 0.000000 0.000000 -10.245102
						CHANNELS 6 Xposition Yposition Zposition Zrotation Xrotation Yrotation
						JOINT LeftWrist
						{
							OFFSET 0.000000 0.000000 -12.703300
							CHANNELS 6 Xposition Yposition Zposition Zrotation Xrotation Yrotation
							End Site
							{
								OFFSET 0.000000 0.000000 -2.173901
							}
						}
					}
				}
			}
			JOINT RightCollar
			{
				OFFSET -2.534599 -1.686401 5.195000
				CHANNELS 6 Xposition Yposition Zposition Zrotation Xrotation Yrotation
				JOINT RightShoulder
				{
					OFFSET -4.144100 0.000000 0.000000
					CHANNELS 6 Xposition Yposition Zposition Zrotation Xrotation Yrotation
					JOINT RightElbow
					{
						OFFSET 0.000000 0.000000 -10.116501
						CHANNELS 6 Xposition Yposition Zposition Zrotation Xrotation Yrotation
						JOINT RightWrist
						{
							OFFSET 0.000000 0.000000 -12.937801
							CHANNELS 6 Xposition Yposition Zposition Zrotation Xrotation Yrotation
							End Site
							{
								OFFSET 0.000000 0.000000 -2.173901
							}
						}
					}
				}
			}
		}
	}
	JOINT LeftHip
	{
		OFFSET 2.175598 0.064499 -2.662899
		CHANNELS 6 Xposition Yposition Zposition Zrotation Xrotation Yrotation
		JOINT LeftKnee
		{
			OFFSET 0.000000 -0.000004 -18.585800
			CHANNELS 6 Xposition Yposition Zposition Zrotation Xrotation Yrotation
			JOINT LeftAnkle
			{
				OFFSET 0.000000 0.000000 -18.979500
				CHANNELS 6 Xposition Yposition Zposition Zrotation Xrotation Yrotation
				End Site
				{
					OFFSET 0.000000 -9.264000 0.000000
				}
			}
		}
	}
	JOINT RightHip
	{
		OFFSET -2.092400 -0.058102 -2.581200
		CHANNELS 6 Xposition Yposition Zposition Zrotation Xrotation Yrotation
		JOINT RightKnee
		{
			OFFSET 0.000000 -0.000004 -18.665001
			CHANNELS 6 Xposition Yposition Zposition Zrotation Xrotation Yrotation
			JOINT RightAnkle
			{
				OFFSET 0.000000 0.000000 -18.566601
				CHANNELS 6 Xposition Yposition Zposition Zrotation Xrotation Yrotation
				End Site
				{
					OFFSET 0.000000 -8.497601 0.000000
				}
			}
		}
	}
}
MOTION
Frames: 7
Frame Time: 0.041667
62.843605 -13.813698 43.721893 3132.322349 -0.444497 2.828388 -0.153494 1.163102 7.852411 -30.604134 1.225983 2.361451 0.000010 0.000009 3.343303 4.907625 -4.315810 0.068169 -0.000006 -0.000005 7.785501 42.238808 -16.039408 -13.903917 0.000002 -0.000003 2.173893 5.787075 -4.087389 6.503797 2.676292 -1.652401 4.938298 -13.443551 8.057128 0.575359 4.298996 -0.000001 0.000000 -391.335115 -21.449439 297.403703 0.000000 0.000000 -10.245106 131.059009 658.116594 428.684392 -0.000007 -0.000003 -12.703297 1298.104335 -168.689376 519.585112 -2.534596 -1.686406 5.194998 -9.166294 0.065993 8.325547 -4.144099 -0.000002 0.000000 185.990942 212.931844 -52.001611 0.000005 0.000006 -10.116500 -606.488833 -176.358312 -179.760976 0.000007 -0.000015 -12.937789 -1460.725020 0.137667 21.577117 2.175595 0.064507 -2.662889 -1091.309047 -5.315718 -10.588132 0.000001 -0.000006 -18.585800 534.705075 -203.996427 -150.280609 -0.000001 -0.000006 -18.979498 745.342153 0.498944 -718.863695 -2.092399 -0.058105 -2.581184 1381.686398 -36.013620 -48.271098 0.000011 0.000005 -18.665014 -930.274060 34.787226 -1185.116833 0.000002 -0.000007 -18.566599 687.913813 5.268303 -29.589814
62.852097 -13.811596 43.757992 3132.081926 -0.435433 2.929866 -0.153502 1.163101 7.852396 -30.358422 1.227817 2.294043 0.000005 -0.000004 3.343302 4.824175 -4.400938 0.065077 -0.000006 -0.000009 7.785496 42.213660 -15.974267 -13.834742 0.000000 -0.000000 2.173920 5.881559 -4.185714 6.527661 2.676295 -1.652395 4.938296 -13.597454 8.377341 0.799765 4.298994 0.000001 -0.000004 -391.267387 -21.506744 296.806526 0.000000 -0.000004 -10.245102 130.520708 658.143860 427.921351 -0.000001 0.000007 -12.703300 1297.849815 -168.340654 519.854113 -2.534603 -1.686403 5.194997 -8.996232 0.404918 8.070403 -4.144103 0.000006 0.000008 186.184687 213.098268 -51.483954 -0.000000 -0.000011 -10.116517 -606.661664 -176.353326 -179.787969 0.000005 0.000007 -12.937798 -1460.485690 -0.043142 21.664604 2.175596 0.064495 -2.662905 -1091.453192 -5.141743 -10.670500 0.000001 -0.000005 -18.585796 535.104176 -203.801179 -150.456746 -0.000012 0.000000 -18.979502 745.351824 0.531829 -718.670373 -2.092399 -0.058104 -2.581194 1382.033481 -36.028657 -48.107071 0.000010 0.000002 -18.665007 -930.556338 34.917587 -1184.973344 -0.000002 0.000003 -18.566603 687.965886 5.297249 -29.614157
62.858398 -13.812988 43.790195 3131.859208 -0.429792 3.052241 -0.153505 1.163103 7.852407 -30.102932 1.265321 2.199493 0.000001 0.000009 3.343298 4.725966 -4.530086 0.062327 0.000000 -0.000002 7.785498 42.123993 -15.841789 -13.828439 0.000001 0.000006 2.173910 5.995578 -4.216496 6.768987 2.676295 -1.652399 4.938302 -13.770494 8.683381 1.186400 4.299002 0.000010 -0.000006 -391.206325 -21.512519 296.085203 -0.000006 -0.000001 -10.245098 130.223745 658.269044 427.508944 -0.000007 0.000004 -12.703304 1297.909265 -168.424228 519.547847 -2.534598 -1.686399 5.194993 -8.825871 0.731031 7.897758 -4.144100 0.000006 0.000002 186.661748 213.658699 -50.840295 0.000005 -0.000004 -10.116507 -606.439382 -176.357984 -179.796643 -0.000003 0.000007 -12.937813 -1460.087572 -0.379172 21.756171 2.175588 0.064503 -2.662896 -1091.096820 -5.136079 -10.698129 -0.000001 -0.000003 -18.585796 535.575186 -203.954831 -150.838348 -0.000007 -0.000001 -18.979498 744.898300 0.731478 -719.047782 -2.092400 -0.058104 -2.581188 1382.008346 -35.883287 -48.154913 -0.000002 -0.000001 -18.664997 -930.570435 35.129620 -1184.857285 -0.000011 -0.000001 -18.566607 688.073148 5.344475 -29.485636
62.860100 -13.813793 43.807293 3131.798883 -0.437085 3.123933 -0.153493 1.163106 7.852394 -30.214189 1.285970 2.139794 -0.000003 -0.000000 3.343301 4.791644 -4.526875 0.061850 0.000006 0.000005 7.785511 42.135857 -15.764720 -13.730519 0.000001 -0.000004 2.173903 5.994574 -4.186136 6.970611 2.676299 -1.652395 4.938309 -13.564796 8.634461 0.976576 4.298996 0.000011 -0.000004 -391.223947 -21.609947 296.032420 0.000002 -0.000002 -10.245109 129.797992 658.297293 427.011269 -0.000003 0.000003 -12.703305 1297.420333 -167.899205 519.991044 -2.534587 -1.686394 5.195005 -8.829217 0.812107 8.012682 -4.144103 -0.000001 0.000002 186.840890 213.765783 -50.761754 0.000007 -0.000005 -10.116486 -606.604454 -176.326811 -179.768762 0.000002 0.000007 -12.937797 -1459.798955 -0.381235 21.969396 2.175598 0.064507 -2.662908 -1091.389808 -4.948056 -10.739165 -0.000003 -0.000005 -18.585800 535.882108 -203.718465 -150.979938 -0.000006 -0.000005 -18.979500 744.989387 0.762051 -718.877793 -2.092393 -0.058104 -2.581198 1382.150961 -35.946876 -48.011319 0.000004 -0.000005 -18.665009 -930.817524 35.370046 -1184.703524 0.000006 -0.000000 -18.566599 688.192266 5.352720 -29.757775
62.864498 -13.814796 43.827995 3131.712113 -0.428288 3.233178 -0.153503 1.163095 7.852406 -30.339666 1.277152 2.025965 0.000003 0.000003 3.343300 4.898555 -4.459467 0.061408 0.000002 -0.000003 7.785500 42.347070 -15.666769 -13.639121 -0.000003 0.000005 2.173903 5.872645 -4.186900 7.233285 2.676301 -1.652395 4.938298 -13.493769 8.650246 0.793090 4.299011 0.000010 0.000000 -391.111931 -21.766303 296.012148 0.000006 -0.000005 -10.245098 129.737681 658.344176 426.849694 -0.000004 0.000000 -12.703309 1297.095981 -167.685966 520.374628 -2.534600 -1.686399 5.194997 -7.899080 1.803043 8.096177 -4.144106 0.000002 -0.000002 185.814449 214.420060 -50.615960 0.000007 0.000004 -10.116503 -607.096064 -176.319120 -179.697851 0.000002 0.000000 -12.937809 -1459.676777 -0.250549 21.839847 2.175598 0.064495 -2.662900 -1091.686183 -4.715638 -10.830206 -0.000001 -0.000010 -18.585800 536.196733 -203.410615 -151.099794 -0.000010 -0.000001 -18.979500 745.113970 0.808015 -718.740260 -2.092395 -0.058107 -2.581194 1382.211066 -35.953880 -47.997877 0.000000 -0.000003 -18.665009 -930.977405 35.289972 -1184.592056 0.000003 -0.000001 -18.566601 688.058285 5.224219 -30.117186
62.875896 -13.820896 43.855892 3131.340550 -0.339672 3.358560 -0.153497 1.163107 7.852402 -30.025238 1.207763 1.862209 0.000008 0.000004 3.343303 4.927926 -4.483825 0.061397 -0.000008 -0.000004 7.785498 42.647332 -15.593295 -13.687463 0.000003 0.000005 2.173905 5.740346 -4.114563 7.438211 2.676295 -1.652395 4.938294 -13.513764 8.791538 0.693248 4.298996 -0.000004 -0.000008 -391.089501 -21.904010 295.866009 0.000002 0.000001 -10.245107 129.644736 658.432094 426.658804 -0.000007 0.000006 -12.703308 1297.110078 -167.657320 520.296818 -2.534609 -1.686400 5.194999 -7.795635 2.002854 8.067352 -4.144099 -0.000002 -0.000002 186.242702 214.825432 -50.124709 0.000005 0.000003 -10.116495 -607.068306 -176.339734 -179.673017 0.000001 -0.000004 -12.937793 -1459.575034 -0.160744 21.972097 2.175590 0.064501 -2.662909 -1091.529034 -4.707155 -10.947308 -0.000001 -0.000004 -18.585800 536.519556 -203.305690 -151.255017 0.000001 -0.000006 -18.979502 745.079819 0.915909 -718.866919 -2.092403 -0.058098 -2.581198 1382.359691 -35.935148 -48.102656 0.000004 -0.000003 -18.665007 -931.161547 34.985308 -1184.353819 -0.000002 -0.000011 -18.566605 687.753003 5.165150 -30.586868
62.885201 -13.823200 43.890995 3131.050295 -0.294511 3.389357 -0.153492 1.163102 7.852405 -29.752837 1.155492 1.803284 0.000002 0.000003 3.343304 4.962049 -4.531890 0.062644 -0.000006 -0.000003 7.785500 42.822930 -15.540492 -13.687835 0.000000 0.000013 2.173902 5.613826 -4.035612 7.573724 2.676300 -1.652404 4.938296 -13.498904 8.746703 0.710838 4.299002 0.000010 -0.000008 -391.201052 -21.778220 295.581136 0.000006 -0.000003 -10.245099 129.241072 658.611209 426.109247 -0.000002 0.000007 -12.703309 1297.148437 -167.682729 520.415882 -2.534603 -1.686406 5.195001 -7.750097 2.052632 8.255893 -4.144103 0.000011 -0.000010 186.203483 214.940548 -50.096880 -0.000000 -0.000000 -10.116498 -607.024265 -176.317959 -179.730486 -0.000005 0.000003 -12.937817 -1459.776006 0.056487 22.120196 2.175598 0.064494 -2.662902 -1091.160641 -4.752087 -10.904938 0.000007 0.000000 -18.585806 536.817352 -203.344895 -151.530055 -0.000001 0.000001 -18.979502 744.847210 1.082714 -719.203839 -2.092401 -0.058100 -2.581198 1382.547221 -35.957825 -48.075168 0.000010 -0.000005 -18.664993 -931.315636 35.146128 -1184.252513 -0.000003 -0.000002 -18.566607 687.737867 5.247402 -30.479487
